<svg width="62" height="62" fill="none" xmlns="http://www.w3.org/2000/svg"><path d="M55.111 27.693v-3.582C55.111 10.816 44.296 0 31 0 17.704 0 6.889 10.816 6.889 24.111v3.582C2.962 28.313 0 31.758 0 35.823c0 4.064 2.962 7.508 6.889 8.128v.138a4.792 4.792 0 004.822 4.822 4.792 4.792 0 004.822-4.822V27.556a4.793 4.793 0 00-4.822-4.823c-.758 0-1.447.138-2.067.483.483-11.367 9.852-20.46 21.356-20.46 11.504 0 20.873 9.093 21.356 20.46-.62-.276-1.31-.483-2.067-.483a4.793 4.793 0 00-4.822 4.823v16.533a4.792 4.792 0 004.822 4.822 4.792 4.792 0 004.822-4.822v-.138a8.309 8.309 0 004.133-1.998v.758c0 6.82-5.58 12.4-12.4 12.4h-5.028c-.62-2.342-2.756-4.133-5.305-4.133-3.031 0-5.511 2.48-5.511 5.51C31 59.52 33.48 62 36.511 62c2.549 0 4.685-1.791 5.305-4.133h5.028C55.18 57.867 62 51.047 62 42.71v-6.889c0-4.064-2.962-7.509-6.889-8.129zM6.89 41.127c-2.342-.62-4.133-2.756-4.133-5.305s1.79-4.753 4.133-5.304v10.609zm4.822-15.638c1.171 0 2.067.895 2.067 2.067v16.533a2.073 2.073 0 01-2.067 2.067 2.073 2.073 0 01-2.067-2.067V27.556c0-1.172.896-2.067 2.067-2.067zm40.645 18.6a2.073 2.073 0 01-2.067 2.067 2.073 2.073 0 01-2.067-2.067V27.556c0-1.172.896-2.067 2.067-2.067 1.171 0 2.067.895 2.067 2.067v16.533zM36.51 59.244a2.764 2.764 0 01-2.755-2.755 2.764 2.764 0 012.755-2.756 2.764 2.764 0 012.756 2.756 2.764 2.764 0 01-2.756 2.755zm18.6-18.117v-10.61c2.342.62 4.133 2.756 4.133 5.305 0 2.55-1.79 4.685-4.133 5.305zm-22.94-1.103l2.342-3.513H37.2a4.145 4.145 0 004.133-4.133V24.11a4.145 4.145 0 00-4.133-4.133H24.8a4.145 4.145 0 00-4.133 4.133v8.267A4.145 4.145 0 0024.8 36.51h2.687l2.342 3.513c.275.414.689.62 1.171.62.482 0 .896-.206 1.171-.62zm-2.755-5.648a1.353 1.353 0 00-1.172-.62H24.8c-.758 0-1.378-.62-1.378-1.378V24.11c0-.758.62-1.378 1.378-1.378h12.4c.758 0 1.378.62 1.378 1.378v8.267c0 .758-.62 1.378-1.378 1.378h-3.444c-.483 0-.896.206-1.172.62L31 36.786l-1.584-2.41zm4.34-4.754h-5.512c-.757 0-1.377-.62-1.377-1.378 0-.757.62-1.377 1.377-1.377h5.512c.757 0 1.377.62 1.377 1.377 0 .758-.62 1.378-1.377 1.378z" fill="#0F2421"/></svg>