<svg width="83" height="55" fill="none" xmlns="http://www.w3.org/2000/svg"><path d="M42.05.595l.016.006.015.005L67.425 8.88c.7.285 1.153.899 1.153 1.621v33.204c0 .759-.485 1.42-1.125 1.613h0l-.013.004-25.36 8.366h-.002c-.179.06-.282.062-.539.062-.257 0-.36-.002-.54-.062h-.002l-25.344-8.274c-.7-.286-1.153-.899-1.153-1.622v-33.29c0-.76.485-1.421 1.125-1.613h0l.012-.004L40.997.606H41c.431-.145.743-.134 1.05-.011zm-2.845 48.988l.075.025h.667V19.985l-.346-.112-8.366-2.701-.654-.211V32.463c0 .944-.735 1.679-1.679 1.679a1.658 1.658 0 01-1.678-1.68v-16.66l-.347-.112-8.366-2.701-.654-.211v29.808l.345.113 21.003 6.884zm2.18-32.593l.155.05.154-.05 18.389-6.013 1.453-.476-1.453-.475-18.389-6.013-.155-.05-.156.05-18.388 6.013-1.45.474 1.45.476 5.839 1.918.164.054.163-.06 9.312-3.394c.9-.27 1.831.15 2.163 1.013.327.849-.117 1.792-1.014 2.14l-4.176 1.48-1.391.492 1.404.454 5.926 1.917zm23.49 25.71l.346-.113V12.775l-.656.214-21.003 6.885-.344.113v29.808l.653-.211 8.367-2.702.346-.111V35.513c0-.971.674-1.679 1.591-1.679.944 0 1.68.735 1.68 1.68V45.611l.653-.211 8.366-2.702z" fill="#0F2421" stroke="#fff"/></svg>