<svg width="55" height="54" fill="none" xmlns="http://www.w3.org/2000/svg"><path d="M53.252 48.185h-2.409V21.932a4.562 4.562 0 003.24-4.403v-3.572c.083-.416-.083-.665-.332-.83l-7.477-8.06V3.324A3.333 3.333 0 0042.95 0H11.132A3.333 3.333 0 007.81 3.323v1.745C-.332 13.874.166 13.292.083 13.458c0 .083-.083.333-.083.333v3.738c0 2.077 1.33 3.822 3.24 4.403v26.253H.914c-.499 0-.83.332-.83.83v4.154c0 .499.331.831.83.831h52.338c.499 0 .831-.332.831-.83v-4.155a.833.833 0 00-.83-.83zm-4.901-27.997c-2.243-.997-1.662-3.49-1.745-5.566h5.816v2.907c0 2.077-2.16 3.49-4.071 2.659zm-6.314.249c-1.578 0-2.908-1.33-2.908-2.908v-2.908h5.816v2.908a2.89 2.89 0 01-2.908 2.908zm-7.477 0c-1.579 0-2.908-1.33-2.908-2.908v-2.908h5.816v2.908c0 1.662-1.413 2.908-2.908 2.908zm-7.477 0c-1.578 0-2.908-1.33-2.908-2.908v-2.908h5.816v2.908a2.89 2.89 0 01-2.908 2.908zm-7.477 0c-1.578 0-2.908-1.33-2.908-2.908v-2.908h5.816v2.908a2.89 2.89 0 01-2.908 2.908zm-7.477 0c-1.578 0-2.907-1.33-2.907-2.908v-2.908h5.815v2.908c0 1.579-1.33 2.908-2.908 2.908zM9.055 6.23h3.324L7.975 12.96h-5.15l6.23-6.73zm42.287 6.729H46.19l-4.403-6.73h3.323l6.23 6.73zM39.794 6.23l4.486 6.73h-5.4l-2.659-6.73h3.573zm-5.4 0l2.658 6.73H31.57l-.747-5.732-.167-.997h3.739zm-5.4 0l.914 6.73H24.34l.831-6.73h3.822zm-6.397 6.73h-5.483l2.658-6.73h3.739l-.914 6.73zm-7.31 0h-5.4l4.485-6.73h3.573l-2.659 6.73zM9.553 3.323c0-.914.748-1.661 1.661-1.661h31.819c.914 0 1.661.747 1.661 1.661V4.57H9.554V3.323zM1.744 17.53v-2.908H7.56v2.908c0 1.496-1.246 2.908-2.908 2.908H4.57c-1.578 0-2.824-1.33-2.824-2.908zm3.24 4.57c1.33-.084 2.576-.831 3.407-1.911 1.412 2.077 3.821 1.994 3.738 1.91a4.641 4.641 0 003.739-1.91c.747 1.08 2.16 1.91 3.655 1.91h.083a4.641 4.641 0 003.739-1.91c.747 1.08 2.16 1.91 3.655 1.91h.083c1.579 0 2.908-.83 3.739-1.91.747 1.163 2.16 1.91 3.655 1.91h.083a4.641 4.641 0 003.738-1.91c.831 1.163 2.16 1.91 3.656 1.91h.083a4.641 4.641 0 003.738-1.91 4.509 4.509 0 003.407 1.91v26.087h-3.324V27.332c0-.498-.332-.83-.83-.83H32.483c-.498 0-.83.332-.83.83v20.853H4.984V22.098zm28.33 16.864h1.246c.498 0 .83-.332.83-.83 0-.5-.331-.832-.83-.832h-1.246v-9.138h10.883v20.022H33.314v-9.222zM52.422 52.34H1.745v-2.493h50.677v2.493z" fill="#0F2421"/><path d="M25.172 26.502H10.8c-.498 0-.83.332-.83.83v13.126c0 .499.332.831.83.831h14.29c.498 0 .83-.332.83-.83V27.331c.083-.498-.332-.83-.748-.83zm-.83 6.563h-5.483v-4.902h5.482v4.902zm-7.228-4.902v4.902H11.63v-4.902h5.483zm-5.483 6.563h5.483v4.902H11.63v-4.902zm7.144 4.902v-4.902h5.484v4.902h-5.484z" fill="#0F2421"/></svg>