<svg width="23" height="26" fill="none" xmlns="http://www.w3.org/2000/svg"><path d="M23 21.387V7.13h-6.571V5.032c0-1.334-.52-2.614-1.444-3.558A4.878 4.878 0 0011.5 0c-1.307 0-2.56.53-3.485 1.474a5.087 5.087 0 00-1.444 3.558V7.13H0v14.258c0 1.223.476 2.397 1.323 3.262A4.471 4.471 0 004.518 26h13.964a4.471 4.471 0 003.195-1.351A4.663 4.663 0 0023 21.387zM9.036 5.032c0-.667.26-1.307.721-1.779a2.439 2.439 0 011.743-.737c.654 0 1.28.265 1.742.737.463.472.722 1.112.722 1.78v2.096H9.036V5.032zM2.464 21.387V9.645h4.107v3.774h2.465V9.645h4.928v3.774h2.465V9.645h4.107v11.742c0 .556-.217 1.09-.602 1.483a2.032 2.032 0 01-1.452.614H4.518c-.545 0-1.067-.221-1.452-.614a2.12 2.12 0 01-.602-1.483z" fill="#151442"/></svg>