<svg width="93" height="14" fill="none" xmlns="http://www.w3.org/2000/svg"><g clip-path="url(#clip0)" fill="#fff"><path d="M11.846 13.816H8.46L4.588 8.01l-1.73 2.021v3.748H0V.184h2.896v5.622l4.7-5.622h3.686L6.506 5.769l5.34 8.047zM26.813 13.816l-1.128-2.609h-5.829l-1.166 2.61h-3.159L21.511.22h2.407l5.979 13.596h-3.084zM24.67 8.892l-1.88-4.336-1.88 4.336h3.76zM43.849 11.318v2.498h-8.95V.22h2.895v11.098h6.055zM62.614 7.018c0 4.263-3.083 7.019-7.22 7.019-4.175 0-7.22-2.72-7.22-7.019C48.135 2.72 51.181 0 55.393 0c4.137 0 7.22 2.72 7.22 7.018zm-11.545 0c0 2.793 1.768 4.52 4.325 4.52 2.52 0 4.287-1.727 4.287-4.52 0-2.829-1.768-4.52-4.287-4.52-2.557 0-4.325 1.691-4.325 4.52zM78.183 4.189l-2.933.147c0-1.14-.827-1.874-2.144-1.874-1.316 0-2.068.661-2.068 1.653 0 1.03.79 1.323 2.708 1.764 2.858.698 4.738 1.58 4.738 4.006 0 2.902-2.331 4.152-5.114 4.152-3.235 0-5.529-1.544-5.566-4.373l2.933-.147c.038 1.25 1.166 2.058 2.67 2.058 1.279 0 2.181-.441 2.181-1.58 0-1.03-1.015-1.433-2.858-1.874-2.52-.625-4.588-1.323-4.588-3.969C68.067 1.911 69.684 0 73.032 0c3.008 0 5.076 1.58 5.151 4.189zM86.945 2.682v2.94h5.265v2.425h-5.265v3.27H93v2.5h-8.95V.22H93v2.462h-6.055z"/></g><defs><clipPath id="clip0"><path fill="#fff" d="M0 0h93v14H0z"/></clipPath></defs></svg>